<svg xmlns="http://www.w3.org/2000/svg" width="113" height="32" viewBox="0 0 113 32">
  <g id="Groupe_11718" data-name="Groupe 11718" transform="translate(-73 -20)">
    <text id="Futuria" transform="translate(112 46)" fill="#2f495e" font-size="24" font-family="SegoeUI, Segoe UI"><tspan x="0" y="0">Futuria</tspan></text>
    <g id="Groupe_11717" data-name="Groupe 11717">
      <rect id="Rectangle_1538" data-name="Rectangle 1538" width="32" height="32" transform="translate(73 20)" fill="none"/>
      <g id="Groupe_11716" data-name="Groupe 11716" transform="translate(636.036 1471)">
        <path id="Tracé_3224" data-name="Tracé 3224" d="M442.579,164.593l-1.091,1.889-3.731-6.463L426.3,179.857h7.755a1.889,1.889,0,0,0,1.889,1.889H426.3a1.889,1.889,0,0,1-1.636-2.834l11.454-19.837a1.889,1.889,0,0,1,3.272,0Z" transform="translate(-987.45 -1605.13)" fill="#00c58e"/>
        <path id="Tracé_3225" data-name="Tracé 3225" d="M562.211,253.536l-7.178-12.43-1.091-1.889-1.091,1.889-7.177,12.43a1.889,1.889,0,0,0,1.636,2.834h13.263a1.889,1.889,0,0,0,1.637-2.834Zm-14.9.945L553.942,243l6.63,11.485Z" transform="translate(-1098.813 -1679.755)" fill="#2f495e"/>
        <path id="Tracé_3226" data-name="Tracé 3226" d="M665.73,225.948a1.889,1.889,0,0,1-1.636.945h-5.134A1.889,1.889,0,0,0,660.85,225h3.241l-9.2-15.927-1.474,2.553-1.091-1.889.929-1.608a1.889,1.889,0,0,1,3.272,0l9.2,15.927a1.889,1.889,0,0,1,0,1.889Z" transform="translate(-1197.201 -1650.277)" fill="#108775"/>
      </g>
    </g>
  </g>
</svg>
