<svg xmlns="http://www.w3.org/2000/svg" width="172" height="50" viewBox="0 0 172 50">
  <g id="Groupe_11733" data-name="Groupe 11733" transform="translate(-73 -19.977)">
    <text id="Futuria" transform="translate(134 58.978)" fill="#fff" font-size="36" font-family="SegoeUI, Segoe UI"><tspan x="0" y="0">Futuria</tspan></text>
    <g id="Groupe_11717" data-name="Groupe 11717" transform="translate(73 19.978)">
      <rect id="Rectangle_1538" data-name="Rectangle 1538" width="50" height="50" transform="translate(0 -0.001)" fill="none"/>
      <g id="Groupe_11716" data-name="Groupe 11716" transform="translate(0 6.32)">
        <path id="Tracé_3224" data-name="Tracé 3224" d="M452.9,168.266l-1.711,2.963-5.852-10.136L427.376,192.2h12.163a2.963,2.963,0,0,0,2.963,2.963H427.376a2.963,2.963,0,0,1-2.565-4.444l17.964-31.11a2.963,2.963,0,0,1,5.132,0Z" transform="translate(-424.414 -158.131)" fill="#fff"/>
        <path id="Tracé_3225" data-name="Tracé 3225" d="M571.752,261.674,560.5,242.18l-1.711-2.963-1.711,2.963-11.255,19.493a2.963,2.963,0,0,0,2.565,4.444h20.8a2.963,2.963,0,0,0,2.567-4.444Zm-23.369,1.481,10.4-18.012,10.4,18.012Z" transform="translate(-530.296 -229.082)" fill="#fff" opacity="0.6"/>
        <path id="Tracé_3226" data-name="Tracé 3226" d="M673.346,236.61a2.962,2.962,0,0,1-2.565,1.481h-8.052a2.963,2.963,0,0,0,2.963-2.963h5.083L656.352,210.15l-2.311,4-1.711-2.963,1.457-2.522a2.963,2.963,0,0,1,5.132,0l14.427,24.978a2.963,2.963,0,0,1,0,2.963Z" transform="translate(-623.841 -201.055)" fill="#fff" opacity="0.799"/>
      </g>
    </g>
  </g>
</svg>
