<svg xmlns="http://www.w3.org/2000/svg" width="120" height="119.996" viewBox="0 0 120 119.996">
  <g id="Groupe_11739" data-name="Groupe 11739" transform="translate(-110.035 -929.785)">
    <path id="Tracé_3300" data-name="Tracé 3300" d="M808.989,206.448a59.919,59.919,0,0,1-25.284,48.284l-.414.29c-.145.1-.295.207-.445.305q-1.3.9-2.659,1.722-1.909,1.164-3.905,2.188l-.129.062q-1.148.59-2.317,1.117l-.073.031c-.181.083-.372.171-.559.248-1.443.641-2.917,1.226-4.417,1.743q-1.916.675-3.89,1.21a58.823,58.823,0,0,1-8.2,1.645,59.789,59.789,0,0,1-7.117.486c-.2.005-.393.005-.59.005-1.3,0-2.591-.041-3.869-.124-1.117-.072-2.224-.171-3.321-.305-1.691-.2-3.362-.471-5.007-.822-.072-.01-.145-.026-.217-.041-.057-.01-.119-.026-.176-.036-1.655-.347-3.284-.771-4.883-1.257q-2.258-.683-4.433-1.541c-.372-.145-.739-.29-1.107-.445-.915-.383-1.82-.781-2.71-1.21-.259-.119-.512-.243-.765-.367-.859-.419-1.707-.859-2.534-1.324q-1.5-.83-2.943-1.743c-1.216-.766-2.405-1.572-3.559-2.426a60,60,0,1,1,95.517-47.694Z" transform="translate(-578.957 783.996)" fill="#fff" opacity="0.8"/>
    <path id="Tracé_3301" data-name="Tracé 3301" d="M776.1,341.662c-1.655-.347-3.284-.771-4.883-1.257l5.488-34.028,5.684-.176,10.308-.326,5.286-.165s3.75,16.479,6.61,35.145a58.824,58.824,0,0,1-8.2,1.645,59.775,59.775,0,0,1-7.117.486c-.2.005-.393.005-.59.005-1.3,0-2.591-.041-3.869-.124-1.117-.072-2.224-.171-3.321-.305-1.691-.2-3.362-.471-5.007-.822-.072-.01-.145-.026-.217-.041C776.222,341.688,776.16,341.672,776.1,341.662Z" transform="translate(-618.655 706.79)" fill="#cbcbcb"/>
    <path id="Tracé_3302" data-name="Tracé 3302" d="M767.656,341.431c-.072-.01-.145-.026-.217-.041-.057-.01-.119-.026-.176-.036-1.655-.347-3.284-.771-4.883-1.257q-2.258-.683-4.433-1.541c-.372-.145-.739-.29-1.107-.445-.915-.383-1.82-.781-2.71-1.21-.259-.119-.512-.243-.765-.367l-.455-25.478,13.965-5.984s.046.372,6.677.822C774.815,310.009,767.656,341.431,767.656,341.431Z" transform="translate(-609.815 707.099)" fill="#2f2e41"/>
    <path id="Tracé_3303" data-name="Tracé 3303" d="M834.741,308.608l-2.633,13.836.248,12.512q-1.148.59-2.317,1.117l-.073.031c-.181.083-.372.171-.559.248-1.443.641-2.917,1.226-4.417,1.743q-1.916.675-3.889,1.21a58.824,58.824,0,0,1-8.2,1.645,59.778,59.778,0,0,1-7.117.486l-.274-22.173c-.579-7.148,1.34-11.875,3.693-14.937,12.543-1.676,12.263-1.826,12.263-1.826l13.3,5.984Z" transform="translate(-635.16 708.34)" fill="#2f2e41"/>
    <path id="Tracé_3304" data-name="Tracé 3304" d="M754.207,318.636l-.947,25.5c-.372-.145-.739-.29-1.107-.445-.915-.383-1.82-.781-2.71-1.21-.259-.119-.512-.243-.766-.367-.859-.419-1.707-.859-2.534-1.324q-1.5-.83-2.943-1.743l5.022-22.411Z" transform="translate(-605.128 701.513)" fill="#2f2e41"/>
    <path id="Tracé_3305" data-name="Tracé 3305" d="M861.948,336.008l-.414.29c-.145.1-.295.207-.445.305q-1.3.9-2.659,1.722-1.909,1.164-3.905,2.188l-.129.062q-1.183.607-2.388,1.149h0l-.946-25.592,5.72-1.9.264-.088Z" transform="translate(-657.2 702.72)" fill="#2f2e41"/>
    <ellipse id="Ellipse_36" data-name="Ellipse 36" cx="14.794" cy="14.756" rx="14.794" ry="14.756" transform="translate(151.831 999.157) rotate(-73.66)" fill="#9f616a"/>
    <path id="Tracé_3306" data-name="Tracé 3306" d="M774.688,247.448v-5.757s-4.643-5.468.464-6.846c0,0,1.393-13.775,13.465-7.346,0,0,16.715-2.755,14.857,6.887,0,0,4.179-2.517,2.786,3.911l-2.694,10.355s1.3-6.84-2.878-7.758l-2.322-1.377s-6.5,6.428-16.25-1.377c0,0-4.179-1-3.714,3.135S774.688,247.448,774.688,247.448Z" transform="translate(-619.396 745.373)" fill="#2f2e41"/>
  </g>
</svg>
