<svg xmlns="http://www.w3.org/2000/svg" width="120" height="119.982" viewBox="0 0 120 119.982">
  <g id="Groupe_11740" data-name="Groupe 11740" transform="translate(-450.957 -968.655)">
    <path id="Tracé_3319" data-name="Tracé 3319" d="M398.957,205.774A59.913,59.913,0,0,1,373.26,255a59.186,59.186,0,0,1-7.008,4.215c-.807.414-1.619.807-2.446,1.179-.745.341-1.495.662-2.255.967a60.207,60.207,0,0,1-29.772,3.972q-2.622-.31-5.177-.853l-.222-.047a58.6,58.6,0,0,1-10.421-3.242,60,60,0,1,1,83-55.417Z" transform="translate(172 822.875)" fill="#fff" opacity="0.8"/>
    <path id="Tracé_3320" data-name="Tracé 3320" d="M388.552,235.19c-.052-.062-.109-.119-.165-.176a17.3,17.3,0,0,0-24.327-.248c-.036.031-.067.062-.1.093s-.078.072-.114.109a17.287,17.287,0,0,0-5.078,12.246v10.86A2.331,2.331,0,0,0,361.1,260.4h29.994a2.331,2.331,0,0,0,2.327-2.327v-10.86A17.246,17.246,0,0,0,388.552,235.19Z" transform="translate(133.462 782.262)" fill="#2f2e41"/>
    <circle id="Ellipse_41" data-name="Ellipse 41" cx="12.702" cy="12.702" r="12.702" transform="translate(497.55 1017.153)" fill="#ffb7b7"/>
    <path id="Tracé_3321" data-name="Tracé 3321" d="M394.1,248.8l-1.5-10.477a1.312,1.312,0,0,0-.46-.822,1.358,1.358,0,0,0-.274-.171,26.227,26.227,0,0,0-23.147-.01,1.266,1.266,0,0,0-.285.181c-.031.026-.062.057-.093.088a1.309,1.309,0,0,0-.362.781l-1,10.493a1.3,1.3,0,0,0,.331.993,1.281,1.281,0,0,0,.745.4.951.951,0,0,0,.212.021h2.544a1.3,1.3,0,0,0,1.174-.745l1.1-2.358a.772.772,0,0,1,1.469.233l.217,1.738a1.3,1.3,0,0,0,1.283,1.133h16.771a1.243,1.243,0,0,0,.626-.165,1.31,1.31,0,0,0,.352-.279A1.3,1.3,0,0,0,394.1,248.8Z" transform="translate(129.503 779.971)" fill="#2f2e41"/>
    <path id="Tracé_3323" data-name="Tracé 3323" d="M444.051,328.286l3.6,12.049a59.18,59.18,0,0,1-7.007,4.215c-.807.414-1.619.807-2.446,1.179l-3.729-15.985-1.448-6.2,9.309-1.034Z" transform="translate(97.61 737.54)" fill="#ffb7b7"/>
    <path id="Tracé_3322" data-name="Tracé 3322" d="M403.129,317.736l-9.35,1.4.114,1.536,1.127,15.473a60.207,60.207,0,0,1-29.772,3.972q-2.622-.31-5.177-.853c.765-3.217,1.427-6.113.61-6.682a6.2,6.2,0,0,1-.7-.569c-3.811-3.636-2.4-11.843-2.4-11.843l-6.914.383-2.394.134s1.034-16.549,5.689-16.549h5.689l27.409-2.586s7.757-2.586,9.826,1.034c1.086,1.9,3.02,5.921,4.618,9.324,1.448,3.093,2.622,5.673,2.622,5.673Z" transform="translate(138.532 748.091)" fill="#2f2e41"/>
  </g>
</svg>
