<svg xmlns="http://www.w3.org/2000/svg" width="460.716" height="488.375" viewBox="0 0 460.716 488.375">
  <g id="Groupe_11726" data-name="Groupe 11726" transform="translate(1022 -1738)">
    <path id="Tracé_3259" data-name="Tracé 3259" d="M422.145,646.369a90.459,90.459,0,0,1-22.426-2.9l-1.444-.4-1.339-.671c-48.416-24.275-89.262-56.339-121.4-95.3a360.777,360.777,0,0,1-61.3-108.846,418.939,418.939,0,0,1-23.69-147.58c.02-1.054.038-1.868.038-2.429,0-24.41,13.549-45.828,34.519-54.566,16.049-6.687,161.766-66.539,172.294-70.863,19.828-9.935,40.981-1.643,44.366-.193,7.593,3.1,142.3,58.2,171.409,72.062,30,14.286,38.005,39.95,38.005,52.862,0,58.457-10.124,113.091-30.092,162.382a376,376,0,0,1-67.57,108.9C498.355,620.9,443.182,642.9,442.649,643.1a60.285,60.285,0,0,1-20.5,3.274Zm-12.975-32.14c4.783,1.072,15.8,2.681,22.974.062,9.119-3.326,55.3-27.272,98.452-75.835,59.623-67.1,89.876-151.443,89.92-250.7-.107-2.011-1.534-16.353-20.527-25.4-28.546-13.593-168.561-70.845-169.972-71.422l-.387-.164c-2.934-1.23-12.272-3.819-18.709-.446l-1.289.6c-1.561.641-156.241,64.171-172.737,71.045-11.54,4.808-15.652,16.72-15.652,26.265,0,.7-.018,1.712-.044,3.023C219.881,359.178,235.6,526.29,409.17,614.229Z" transform="translate(-1212.46 1580)" fill="#3f3d56"/>
    <path id="Tracé_3260" data-name="Tracé 3260" d="M401.223,174.161s-156.086,64.107-172.81,71.075-25.085,23.692-25.085,40.415S190.785,520.594,401.223,626.1c0,0,19.1,5.285,33.59,0s198.449-94.477,198.449-341.148c0,0,0-25.085-29.266-39.022s-170.763-71.772-170.763-71.772S415.856,166.5,401.223,174.161Z" transform="translate(-1209.875 1582.591)" fill="#6c63ff"/>
    <path id="Tracé_3261" data-name="Tracé 3261" d="M408.042,215.287V557.273s-157.48-75.8-156.086-275.093Z" transform="translate(-1199.971 1591.636)" opacity="0.1"/>
    <path id="Tracé_3262" data-name="Tracé 3262" d="M201.4,285.446l-50.165-64.5,29.173-22.69,23.753,30.54L284.4,144.088l26.833,25.423Z" transform="translate(-991.275 1767.267)" fill="#fff"/>
  </g>
</svg>
