<svg xmlns="http://www.w3.org/2000/svg" width="120" height="119.989" viewBox="0 0 120 119.989">
  <g id="Groupe_11741" data-name="Groupe 11741" transform="translate(-763.01 -968.653)">
    <path id="Tracé_3324" data-name="Tracé 3324" d="M603.967,555.776a59.915,59.915,0,0,1-25.7,49.229c-.145.1-.295.207-.445.305q-1.3.9-2.658,1.722-1.908,1.164-3.9,2.188c-.807.414-1.619.807-2.446,1.179-.207.093-.419.191-.631.279-1.443.641-2.917,1.226-4.417,1.743a59.065,59.065,0,0,1-12.086,2.855,60.148,60.148,0,0,1-7.706.491c-1.3,0-2.591-.041-3.868-.124-1.117-.072-2.224-.171-3.32-.305-1.764-.212-3.507-.5-5.223-.864-.057-.01-.119-.026-.176-.036a58.6,58.6,0,0,1-10.421-3.243c-.915-.383-1.82-.781-2.71-1.21q-1.683-.791-3.3-1.691a60,60,0,1,1,89.01-52.518Z" transform="translate(279.043 472.874)" fill="#fff" opacity="0.8"/>
    <circle id="Ellipse_42" data-name="Ellipse 42" cx="13.396" cy="13.396" r="13.396" transform="translate(807.974 1016.643)" fill="#ffb8b8"/>
    <path id="Tracé_3326" data-name="Tracé 3326" d="M581.224,688.415c-1.764-.212-3.507-.5-5.223-.864l1.629-36.657.233-.243,3.336-3.522H591.8l3.915,3.791.331.326,8.373,8.021L608.2,685.5a59.061,59.061,0,0,1-12.086,2.855,60.125,60.125,0,0,1-7.706.491c-1.3,0-2.591-.041-3.868-.124C583.427,688.648,582.32,688.55,581.224,688.415Z" transform="translate(234.606 399.797)" fill="#cbcbcb"/>
    <path id="Tracé_3328" data-name="Tracé 3328" d="M547.021,686.187q-1.683-.791-3.3-1.691c-.109-9.93-.181-16.524-.181-16.524l1.262-.771a.421.421,0,0,1,.046-.021l14.32-8.7,3-4.882.016.176.884,10.292a179.325,179.325,0,0,1,5.8,27.777c-1.117-.072-2.224-.171-3.32-.305-1.764-.212-3.507-.5-5.224-.864-.057-.01-.119-.026-.176-.036A58.6,58.6,0,0,1,549.73,687.4C548.815,687.014,547.91,686.616,547.021,686.187Z" transform="translate(250.279 396.673)" fill="#2f2e41"/>
    <path id="Tracé_3327" data-name="Tracé 3327" d="M625.815,688.622a59.065,59.065,0,0,1-12.086,2.855,47.2,47.2,0,0,1-.626-10.111c1.117-17.858-1.458-27.767-.341-27.767l.569.445,7.029,5.554,9.252,3.393h.005l6.366,2.332,1.122.414v.533c.005,1.841.015,8.285.109,16.963q-1.908,1.164-3.9,2.188c-.807.414-1.619.807-2.446,1.179-.207.093-.419.191-.631.279Q628.067,687.842,625.815,688.622Z" transform="translate(216.996 396.673)" fill="#2f2e41"/>
    <path id="Tracé_3325" data-name="Tracé 3325" d="M569.1,600.954s1.138-2,.874-8.676,9.9-2.9,18.4-3.538,6.7,11.148,6.7,11.148.613-.7,1.925-6.388-1.667-11.356-1.667-11.356c-.878-5.977-5.607-4.061-5.607-4.061a2.48,2.48,0,0,1,1.84,2.783c-1.928-3.38-6.658-1.465-6.658-1.465-6.308-3.958-12.7,1.254-12.7,1.254-7.62,1.729-3.151,7.79-3.151,7.79C561.385,592.317,569.1,600.954,569.1,600.954Z" transform="translate(239.602 433.277)" fill="#100d55"/>
  </g>
</svg>
