<svg xmlns="http://www.w3.org/2000/svg" width="460" height="460" viewBox="0 0 460 460">
  <g id="Groupe_11735" data-name="Groupe 11735" transform="translate(-768 -2411)">
    <rect id="Rectangle_1569" data-name="Rectangle 1569" width="460" height="460" transform="translate(768 2411)" fill="none"/>
    <g id="Groupe_11730" data-name="Groupe 11730" transform="translate(-1611.299 -171.03)">
      <circle id="Ellipse_28" data-name="Ellipse 28" cx="60.329" cy="60.329" r="60.329" transform="translate(2544.3 2677.932)" fill="#2f2e41"/>
      <ellipse id="Ellipse_29" data-name="Ellipse 29" cx="24.964" cy="18.723" rx="24.964" ry="18.723" transform="translate(2513.415 2696.906) rotate(-45)" fill="#2f2e41"/>
      <ellipse id="Ellipse_30" data-name="Ellipse 30" cx="18.723" cy="24.964" rx="18.723" ry="24.964" transform="translate(2614.242 2684.187) rotate(-66.869)" fill="#2f2e41"/>
      <path id="Tracé_3277" data-name="Tracé 3277" d="M902.957,723.551a224.789,224.789,0,0,1-32.747,18.881l-1.689-2.985-16.169-28.381-1.416-2.49-8.271-14.515-.018-.017-26.113-45.88L803.112,624.61l39.859-27.955,15.5,32.781,8.408,17.806L901.49,720.43Z" transform="translate(1829.435 2273.742)" fill="#a0616a"/>
      <path id="Tracé_3278" data-name="Tracé 3278" d="M874.076,630.6l-5-7.829-22.1-34.675a27.9,27.9,0,1,0-51,22.633l13.662,48.678a10.02,10.02,0,0,0,13.627,6.5c.052-.017.086-.034.137-.051l41.8-18.676,4.5-2.013a10.065,10.065,0,0,0,4.366-14.566Z" transform="translate(1822.703 2256)" fill="#6c63ff"/>
      <path id="Tracé_3279" data-name="Tracé 3279" d="M808.482,611.713l-11.632,26.266-2.524,5.714L751.26,740.98l-1.382,3.121a223.589,223.589,0,0,1-33.566-17.465l1.16-3.275,35.152-99.18,8.63-24.356,18.9,4.759Z" transform="translate(1768.189 2275.979)" fill="#a0616a"/>
      <circle id="Ellipse_31" data-name="Ellipse 31" cx="51.201" cy="51.201" r="51.201" transform="translate(2537.053 2773.036) rotate(-61.337)" fill="#a0616a"/>
      <path id="Tracé_3280" data-name="Tracé 3280" d="M905.939,645.752a113.955,113.955,0,0,0-4.008-19.921,111.024,111.024,0,0,0-32.081-50.895,30.339,30.339,0,0,0-20.3-7.76H777.422a30.331,30.331,0,0,0-27.169,43.97l8.238,16.476,16.7,33.4,4.008,8,17.858,35.732,1.416,2.831,90.652,24.936.392-.87c.342-.768.682-1.518,1.006-2.268.495-1.143.989-2.251,1.45-3.377,9.143-21.678,13.457-40.968,14.5-57.956a129.036,129.036,0,0,0-.529-22.292Z" transform="translate(1789.852 2252.941)" fill="#6c63ff"/>
      <path id="Tracé_3281" data-name="Tracé 3281" d="M800.059,573.746a27.856,27.856,0,0,0-36.994,13.3l-6.43,9.7L735.144,629.2a10.051,10.051,0,0,0,4.111,14.651l1.262.6,41.7,19.512,2.967,1.381a9.651,9.651,0,0,0,3.564.9,9.828,9.828,0,0,0,4.81-.836,10.026,10.026,0,0,0,5.509-6.276L813.5,610.843A27.924,27.924,0,0,0,800.059,573.746Z" transform="translate(1780.297 2255.717)" fill="#6c63ff"/>
      <path id="Tracé_3282" data-name="Tracé 3282" d="M890.143,672.466a9.316,9.316,0,0,0-1.45-2.951,39.029,39.029,0,0,0-8.271-8.187l-.018-.017c-10.966-8.306-32.8-18.011-74.909-18.267h-.068a10.058,10.058,0,0,0-9.16,5.884l-1.04,2.286-6.7,14.736a7.687,7.687,0,0,1-2.609,3.155c-6.055,4.281-25.328,19.8-35.289,49.445-.358,1.057-.7,2.132-1.023,3.241a225.306,225.306,0,0,0,130.256-1.177l.938-3.872,9.313-38.41.154-.631a10.079,10.079,0,0,0-.12-5.236Z" transform="translate(1791.679 2306.475)" fill="#2f2e41"/>
      <path id="Tracé_3283" data-name="Tracé 3283" d="M756.322,520.088a69.637,69.637,0,0,0,39.8,12.3,42.673,42.673,0,0,1-16.914,6.959,140.418,140.418,0,0,0,57.356.322,37.122,37.122,0,0,0,12.007-4.124,15.2,15.2,0,0,0,7.411-9.912c1.258-7.189-4.343-13.72-10.165-18.122a74.979,74.979,0,0,0-63.007-12.591c-7.038,1.819-14.089,4.893-18.661,10.545s-5.926,14.366-1.57,20.187Z" transform="translate(1796.42 2200.371)" fill="#2f2e41"/>
      <path id="Tracé_3291" data-name="Tracé 3291" d="M659.9,684.358c-.171-1.228-.307-2.473-.444-3.7-.034-.188-.051-.358-.068-.546q-.742-6.729-1.074-13.594-1.407,5.91-2.541,11.871c.051.58.1,1.143.17,1.723.017.188.034.358.068.546.137,1.228.273,2.473.444,3.7.477,3.8,1.058,7.556,1.74,11.291.017-.154.034-.29.051-.443.478-3.6,1.023-7.18,1.671-10.762a.157.157,0,0,1-.017-.085ZM900.563,431.47c-1.228-.119-2.474-.222-3.7-.307-.187-.017-.358-.017-.545-.034-5.458-.409-10.984-.614-16.545-.614A225.208,225.208,0,0,0,655.776,678.389c.051.58.1,1.143.17,1.723.017.188.034.358.068.546.137,1.228.273,2.473.444,3.7.477,3.8,1.058,7.556,1.74,11.291A226.118,226.118,0,0,0,793.4,863.565c3.548,1.467,7.129,2.865,10.762,4.145,2.388.87,4.775,1.672,7.2,2.439,1.74.563,3.5,1.092,5.253,1.6,2.49.733,5.014,1.433,7.556,2.081a224.038,224.038,0,0,0,183.555-33.054h.017a225.017,225.017,0,0,0,97.167-185.125c0-117.14-89.918-213.659-204.346-224.183Zm105.695,406.187a220.647,220.647,0,0,1-32.969,19.017A218.362,218.362,0,0,1,947.807,866.7a222.118,222.118,0,0,1-121.234,4.213q-4.5-1.1-8.937-2.405-4.375-1.279-8.665-2.712c-2.337-.8-4.674-1.62-6.993-2.49-2.422-.921-4.81-1.876-7.2-2.865a222.3,222.3,0,0,1-134.862-176,.159.159,0,0,1-.017-.085c-.171-1.228-.307-2.473-.444-3.7-.034-.188-.051-.358-.068-.546q-.742-6.728-1.074-13.593-.281-5.4-.273-10.865c.134-122.4,99.326-221.593,221.727-221.727,5.561,0,11.086.2,16.545.614l.545.051c1.228.085,2.473.188,3.7.307C1013.114,445.405,1101.5,540.389,1101.5,655.653a221.566,221.566,0,0,1-95.216,181.987ZM801.979,863.309c-2.422-.921-4.81-1.876-7.2-2.865a222.3,222.3,0,0,1-134.862-176c-.648,3.582-1.193,7.163-1.671,10.762-.017.154-.034.29-.051.443A226.117,226.117,0,0,0,793.4,863.565c3.548,1.467,7.129,2.865,10.762,4.145-.75-1.45-1.484-2.917-2.184-4.4Zm94.336-432.18c-5.458-.409-10.984-.614-16.545-.614A225.208,225.208,0,0,0,655.776,678.389c.051.58.1,1.143.17,1.723.017.188.034.358.068.546h3.445c-.034-.188-.051-.358-.068-.546q-.742-6.729-1.074-13.594-.281-5.4-.273-10.865c.134-122.4,99.326-221.593,221.727-221.727,5.56,0,11.086.2,16.544.614l.545.051v-3.428c-.187-.017-.358-.017-.545-.034Z" transform="translate(1724.668 2156.515)" fill="#3f3d56"/>
      <path id="Tracé_3292" data-name="Tracé 3292" d="M915.381,464.3c69.151,1.181,69.141,104.043,0,105.213C846.229,568.334,846.24,465.473,915.381,464.3Z" transform="translate(1872.059 2180.355)" fill="#6c63ff"/>
      <path id="Tracé_3293" data-name="Tracé 3293" d="M905.777,535.64a3.7,3.7,0,0,1-3.7-3.7v-19.6a1.65,1.65,0,0,0-1.647-1.648h-19.6a3.7,3.7,0,1,1,0-7.4h19.6a1.649,1.649,0,0,0,1.647-1.647v-19.6a3.7,3.7,0,1,1,7.394,0v19.6a1.649,1.649,0,0,0,1.648,1.647h19.6a3.7,3.7,0,1,1,0,7.4h-19.6a1.649,1.649,0,0,0-1.647,1.648v19.6A3.7,3.7,0,0,1,905.777,535.64Z" transform="translate(1881.663 2190.267)" fill="#fff"/>
    </g>
  </g>
</svg>
